{"title":"OSU_VS_Illinois_First_Half_10-2-2010","uid":5864880,"size":2407095246,"categoryP":"video","categoryS":"tv_shows","magnet":"?xt=urn:btih:ca8782d7091f38fe977a961df84de405482bab87&amp;dn=OSU_VS_Illinois_First_Half_10-2-2010&amp;tr=udp%3A%2F%2Ftracker.openbittorrent.com%3A80&amp;tr=udp%3A%2F%2Fopen.demonii.com%3A1337&amp;tr=udp%3A%2F%2Ftracker.coppersurfer.tk%3A6969&amp;tr=udp%3A%2F%2Fexodus.desync.com%3A6969","seeders":0,"leechers":0,"uploader":"thetorrentlord","files":15,"time":1286119411,"description":"From a SD broadcast including the local sports report from Sat. evening. Also The Columbus Dispatch for the week. Comments, complaints, suggestions, and questions always welcome. Enjoy and please share. Donn't hit and run. GO BUCKS!!!! Beat the Hoosiers!!!!!!\t\t\t\t\t\t\t\t\t\t\t\t\t\t\t\t\t\t\t\t\t\t\t\t\t\t\t\t\t\t\t\t\t\t\t\t\t\t\t\t\t\t\t\t\t\t\t\t\t\t\t\t\t\t\t\t\t\t\t\t\t\t\t\t\t\t\t\t\t\t\t\t\t\t\t\t\t\t\t\t\t\nFormat                           : AVI\nFormat/Info                      : Audio Video Interleave\nFile size                        : 580 MiB\nDuration                         : 50mn 0s\nOverall bit rate                 : 1 623 Kbps\nMovie name                       : OSU_Illinois_First_Quarter_10-2-2010.mpg\nDirector                         : created.with.SUPER(C).v2010.bld.37\nWriting application              : SUPER(C)   \n\nVideo\nID                               : 0\nFormat                           : MPEG-4 Visual\nFormat profile                   : Simple@L3\nFormat settings, BVOP            : No\nFormat settings, QPel            : No\nFormat settings, GMC             : No warppoints\nFormat settings, Matrix          : Default (H.263)\nCodec ID                         : XVID\nCodec ID/Hint                    : XviD\nDuration                         : 25mn 0s\nBit rate                         : 3 120 Kbps\nWidth                            : 624 pixels\nHeight                           : 352 pixels\nDisplay aspect ratio             : 16:9\nFrame rate                       : 29.970 fps\nColor space                      : YUV\nChroma subsampling               : 4:2:0\nBit depth                        : 8 bits\nScan type                        : Progressive\nBits/(Pixel*Frame)               : 0.474\nStream size                      : 558 MiB (96%)\nWriting library                  : XviD 1.1.2 (UTC 2006-11-01)\n\nAudio\nID                               : 1\nFormat                           : MPEG Audio\nFormat version                   : Version 2\nFormat profile                   : Layer 3\nMode                             : Joint stereo\nMode extension                   : MS Stereo\nCodec ID                         : 55\nCodec ID/Hint                    : MP3\nDuration                         : 50mn 0s\nBit rate mode                    : Constant\nBit rate                         : 112 Kbps\nChannel(s)                       : 2 channels\nSampling rate                    : 22.05 KHz\nStream size                      : 20.0 MiB (3%)\nAlignment                        : Aligned on interleaves\nInterleave, duration             : 26 ms (0.78 video frame)\nInterleave, preload duration     : 26 ms\nWriting library                  : LAME3.98\n\n","torrent":{"xt":"urn:btih:ca8782d7091f38fe977a961df84de405482bab87","amp;dn":"OSU_VS_Illinois_First_Half_10-2-2010","amp;tr":["udp%3A%2F%2Ftracker.openbittorrent.com%3A80","udp%3A%2F%2Fopen.demonii.com%3A1337","udp%3A%2F%2Ftracker.coppersurfer.tk%3A6969","udp%3A%2F%2Fexodus.desync.com%3A6969"],"infoHash":"ca8782d7091f38fe977a961df84de405482bab87","infoHashBuffer":{"type":"Buffer","data":[202,135,130,215,9,31,56,254,151,122,150,29,248,77,228,5,72,43,171,135]},"announce":[],"urlList":[]}}